<svg width="108" height="65" viewBox="0 0 108 65" fill="none" xmlns="http://www.w3.org/2000/svg">
<path fill-rule="evenodd" clip-rule="evenodd" d="M95.2354 39.4379C102.285 39.438 108 45.1529 108 52.2026C108 59.2521 102.285 64.9671 95.2354 64.9672C88.1855 64.9672 82.4699 59.2522 82.4697 52.2026C82.4697 45.1528 88.1854 39.4379 95.2354 39.4379ZM47.8545 3.44279C52.4489 -1.13541 59.8766 -1.14931 64.4883 3.41154L76.3799 15.1733C76.3636 15.1643 71.4882 12.4788 66.6768 17.2729C64.1264 19.8141 62.3459 21.7029 58.6611 25.3744C56.0763 27.95 35.9903 47.6443 24.2275 59.1742C19.5379 63.7709 12.0107 63.6437 7.46289 58.9067L0 51.1322L47.8545 3.44279ZM71.9219 27.5649C76.5168 22.8794 84.0518 22.8407 88.6943 27.4789L91.9346 30.7172C91.9346 30.7172 91.0348 29.5105 83.1396 36.2152C79.3982 39.3926 74.2914 44.6124 69.9531 49.225C65.2118 54.2662 57.1688 54.4085 52.3994 49.394L51.4717 48.4184L71.9219 27.5649Z" fill="white"/>
</svg>
