<svg width="1062" height="182" viewBox="0 0 1062 182" fill="none" xmlns="http://www.w3.org/2000/svg">
<path d="M1015.71 167.373C1005.31 167.373 996.144 165.206 988.211 160.873C980.278 156.539 974.078 150.506 969.611 142.773C965.144 134.973 962.911 125.906 962.911 115.573C962.911 108.106 964.178 101.173 966.711 94.7728C969.311 88.3728 972.911 82.8395 977.511 78.1728C982.178 73.5061 987.611 69.8728 993.811 67.2728C1000.08 64.6728 1006.88 63.3728 1014.21 63.3728C1022.14 63.3728 1029.21 64.7728 1035.41 67.5728C1041.68 70.3728 1046.84 74.3061 1050.91 79.3728C1055.04 84.3728 1058.01 90.2728 1059.81 97.0728C1061.61 103.806 1061.98 111.139 1060.91 119.073H981.111C980.911 125.606 982.244 131.339 985.111 136.273C987.978 141.139 992.111 144.939 997.511 147.673C1002.98 150.406 1009.44 151.773 1016.91 151.773C1022.38 151.773 1027.71 150.906 1032.91 149.173C1038.11 147.439 1042.71 144.873 1046.71 141.473L1054.51 155.173C1051.31 157.773 1047.51 160.006 1043.11 161.873C1038.78 163.673 1034.24 165.039 1029.51 165.973C1024.78 166.906 1020.18 167.373 1015.71 167.373ZM982.111 104.773H1042.51C1042.24 96.5061 1039.68 90.0728 1034.81 85.4728C1029.94 80.8061 1022.98 78.4728 1013.91 78.4728C1005.11 78.4728 997.844 80.8061 992.111 85.4728C986.378 90.0728 983.044 96.5061 982.111 104.773Z" fill="white"/>
<path d="M865.103 164.373V66.3728H883.503V79.5728C887.703 73.8395 892.603 69.7061 898.203 67.1728C903.803 64.6395 909.536 63.3728 915.403 63.3728C924.27 63.3728 931.603 65.1728 937.403 68.7728C943.27 72.3061 947.636 76.8395 950.503 82.3728C953.436 87.9061 954.903 93.5728 954.903 99.3728V164.373H936.503V105.073C936.503 97.6728 934.203 91.7395 929.603 87.2728C925.003 82.7395 918.736 80.4728 910.803 80.4728C905.603 80.4728 900.936 81.6395 896.803 83.9728C892.736 86.2395 889.503 89.4728 887.103 93.6728C884.703 97.8728 883.503 102.706 883.503 108.173V164.373H865.103Z" fill="white"/>
<path d="M779.806 167.373C769.34 167.373 759.64 165.539 750.706 161.873C741.84 158.139 734.073 152.973 727.406 146.373C720.806 139.773 715.673 132.039 712.006 123.173C708.34 114.306 706.506 104.706 706.506 94.3728C706.506 83.9728 708.34 74.3395 712.006 65.4728C715.673 56.6061 720.806 48.8728 727.406 42.2728C734.073 35.6728 741.84 30.5395 750.706 26.8728C759.64 23.2061 769.34 21.3728 779.806 21.3728C790.206 21.3728 799.84 23.2395 808.706 26.9728C817.573 30.7061 825.34 35.9061 832.006 42.5728C838.673 49.2395 843.84 57.0061 847.506 65.8728C851.24 74.6728 853.106 84.1728 853.106 94.3728C853.106 104.706 851.24 114.306 847.506 123.173C843.84 132.039 838.673 139.773 832.006 146.373C825.34 152.973 817.573 158.139 808.706 161.873C799.84 165.539 790.206 167.373 779.806 167.373ZM779.806 149.473C787.34 149.473 794.34 148.173 800.806 145.573C807.34 142.973 813.04 139.273 817.906 134.473C822.773 129.606 826.573 123.773 829.306 116.973C832.106 110.173 833.506 102.639 833.506 94.3728C833.506 83.2395 831.106 73.5395 826.306 65.2728C821.573 57.0061 815.14 50.6061 807.006 46.0728C798.873 41.4728 789.806 39.1728 779.806 39.1728C772.273 39.1728 765.24 40.5061 758.706 43.1728C752.24 45.7728 746.54 49.5061 741.606 54.3728C736.74 59.1728 732.94 64.9728 730.206 71.7728C727.473 78.5061 726.106 86.0395 726.106 94.3728C726.106 105.439 728.473 115.106 733.206 123.373C738.006 131.639 744.473 138.073 752.606 142.673C760.74 147.206 769.806 149.473 779.806 149.473Z" fill="white"/>
<path d="M652.948 167.373C642.615 167.373 633.448 165.106 625.448 160.573C617.448 156.039 611.182 149.873 606.648 142.073C602.115 134.206 599.848 125.306 599.848 115.373C599.848 107.839 601.182 100.906 603.848 94.5728C606.582 88.2395 610.415 82.7395 615.348 78.0728C620.282 73.4061 626.048 69.8061 632.648 67.2728C639.315 64.6728 646.582 63.3728 654.448 63.3728C660.848 63.3728 666.748 64.2061 672.148 65.8728C677.548 67.5395 682.548 70.1061 687.148 73.5728L677.748 87.7728C674.748 85.1728 671.248 83.2395 667.248 81.9728C663.248 80.6395 659.015 79.9728 654.548 79.9728C647.215 79.9728 640.848 81.3728 635.448 84.1728C630.115 86.9061 625.982 90.9061 623.048 96.1728C620.115 101.439 618.648 107.773 618.648 115.173C618.648 126.306 621.848 135.039 628.248 141.373C634.715 147.639 643.448 150.773 654.448 150.773C659.515 150.773 664.248 149.873 668.648 148.073C673.048 146.206 676.648 143.806 679.448 140.873L688.948 154.873C683.815 158.739 678.182 161.806 672.048 164.073C665.915 166.273 659.548 167.373 652.948 167.373Z" fill="white"/>
<path d="M528.423 164.373V66.3728H546.823V80.5728C550.757 74.1728 555.423 69.7061 560.823 67.1728C566.29 64.5728 572.09 63.2728 578.223 63.2728C580.157 63.2728 582.023 63.3728 583.823 63.5728C585.623 63.7728 587.39 64.0395 589.123 64.3728L586.423 83.4728C584.557 82.9395 582.657 82.5395 580.723 82.2728C578.79 81.9395 576.89 81.7728 575.023 81.7728C566.823 81.7728 560.057 84.3395 554.723 89.4728C549.457 94.5395 546.823 101.339 546.823 109.873V164.373H528.423Z" fill="white"/>
<path d="M376.6 164.373L431.7 24.3728H451.2L508 164.373H486.8L472.9 129.273H410.5L397.2 164.373H376.6ZM415.8 112.873H467.4L441 47.6728L415.8 112.873Z" fill="white"/>
<path d="M266.227 110.25C285.935 110.25 301.911 126.227 301.911 145.935C301.911 165.643 285.935 181.619 266.227 181.619C246.519 181.619 230.542 165.642 230.542 145.935C230.542 126.227 246.519 110.25 266.227 110.25ZM133.775 9.625C146.619 -3.17452 167.385 -3.21302 180.276 9.53809L213.518 42.417C213.452 42.3808 199.833 34.8946 186.393 48.2871C179.263 55.3915 174.286 60.671 163.984 70.9355C156.759 78.1356 100.611 133.191 67.7285 165.424C54.6186 178.275 33.5756 177.919 20.8623 164.676L0 142.943L133.775 9.625ZM201.057 77.0576C213.902 63.9593 234.964 63.8517 247.942 76.8184L256.967 85.8359C256.605 85.5317 253.089 83.6825 232.415 101.24C221.956 110.123 207.679 124.715 195.551 137.61C182.296 151.703 159.813 152.101 146.48 138.082L143.887 135.354L201.057 77.0576Z" fill="white"/>
</svg>
