<svg width="140" height="85" viewBox="0 0 140 85" fill="none" xmlns="http://www.w3.org/2000/svg">
<path d="M123.453 51.1237C132.592 51.1238 140 58.532 140 67.6706C140 76.809 132.592 84.2173 123.453 84.2175C114.314 84.2175 106.905 76.8091 106.905 67.6706C106.905 58.5319 114.314 51.1237 123.453 51.1237ZM62.0332 4.46356C67.989 -1.47173 77.6185 -1.49023 83.5967 4.42254L99.0107 19.6686C98.9528 19.6368 92.6513 16.1948 86.4326 22.3913C83.1266 25.6855 80.8186 28.1337 76.042 32.8932C72.6913 36.2319 46.6543 61.7613 31.4062 76.7077C25.327 82.6665 15.5691 82.5019 9.67383 76.361L0 66.2829L62.0332 4.46356ZM93.2324 35.7321C99.1889 29.6583 108.957 29.609 114.975 35.6218L119.175 39.8181C119.153 39.7908 117.915 38.3339 107.774 46.946C102.924 51.0649 96.3036 57.8316 90.6797 63.8112C84.5334 70.3462 74.1074 70.5297 67.9248 64.029L66.7217 62.7643L93.2324 35.7321Z" fill="white"/>
</svg>
