<svg width="210" height="26" viewBox="0 0 210 26" fill="none" xmlns="http://www.w3.org/2000/svg">
<path fill-rule="evenodd" clip-rule="evenodd" d="M36.9023 15.2823C39.6341 15.2823 41.8486 17.4967 41.8486 20.2285C41.8486 22.9603 39.6341 25.1748 36.9023 25.1748C34.1706 25.1748 31.9561 22.9603 31.9561 20.2285C31.9561 17.4968 34.1706 15.2823 36.9023 15.2823ZM18.543 1.33401C20.3233 -0.440215 23.2013 -0.445201 24.9883 1.32229L29.5967 5.87894C29.5967 5.87894 27.7044 4.83267 25.8369 6.69339C24.8487 7.6781 24.1581 8.40943 22.7305 9.83206C21.7289 10.8301 13.9456 18.4618 9.3877 22.9297C7.57049 24.7109 4.65379 24.6619 2.8916 22.8262L0 19.8135L18.543 1.33401ZM27.8691 10.6817C29.6496 8.86604 32.5693 8.85108 34.3682 10.6485L35.624 11.9024C35.6196 11.8967 35.256 11.4513 32.2158 14.0332C30.766 15.2645 28.7865 17.2868 27.1055 19.0742C25.2682 21.0278 22.1518 21.0829 20.3037 19.1397L19.9443 18.7617L27.8691 10.6817Z" fill="#38383C"/>
<path d="M188.061 14.4202V24.8279H183.874V7.06551H187.876V10.0837H188.084C188.492 9.08922 189.144 8.29901 190.038 7.71309C190.94 7.12718 192.054 6.83423 193.38 6.83423C194.606 6.83423 195.674 7.09635 196.583 7.62058C197.501 8.14482 198.21 8.90419 198.711 9.8987C199.22 10.8932 199.47 12.0997 199.463 13.5182V24.8279H195.277V14.1658C195.277 12.9786 194.968 12.0496 194.351 11.3789C193.742 10.7082 192.898 10.3728 191.819 10.3728C191.087 10.3728 190.435 10.5347 189.865 10.8585C189.302 11.1746 188.858 11.6333 188.535 12.2346C188.219 12.836 188.061 13.5645 188.061 14.4202Z" fill="#38383C"/>
<path d="M176.686 24.828V7.06563H180.872V24.828H176.686ZM178.791 4.54467C178.128 4.54467 177.557 4.32495 177.079 3.88552C176.601 3.43838 176.362 2.90257 176.362 2.27812C176.362 1.64595 176.601 1.11015 177.079 0.670713C177.557 0.223571 178.128 0 178.791 0C179.461 0 180.032 0.223571 180.502 0.670713C180.98 1.11015 181.219 1.64595 181.219 2.27812C181.219 2.90257 180.98 3.43838 180.502 3.88552C180.032 4.32495 179.461 4.54467 178.791 4.54467Z" fill="#38383C"/>
<path d="M148.763 24.8279V7.06551H152.765V10.0837H152.973C153.343 9.06609 153.956 8.27202 154.811 7.70153C155.667 7.12333 156.689 6.83423 157.876 6.83423C159.079 6.83423 160.092 7.12718 160.917 7.71309C161.75 8.2913 162.336 9.08151 162.675 10.0837H162.86C163.253 9.09693 163.916 8.31057 164.849 7.72466C165.79 7.13104 166.904 6.83423 168.191 6.83423C169.825 6.83423 171.159 7.35076 172.192 8.38381C173.225 9.41686 173.742 10.924 173.742 12.9054V24.8279H169.544V13.5529C169.544 12.4505 169.251 11.6449 168.665 11.1361C168.079 10.6195 167.362 10.3613 166.514 10.3613C165.504 10.3613 164.714 10.6773 164.144 11.3095C163.581 11.934 163.299 12.7473 163.299 13.7495V24.8279H159.194V13.3795C159.194 12.4621 158.917 11.7297 158.362 11.1823C157.814 10.6349 157.097 10.3613 156.211 10.3613C155.609 10.3613 155.062 10.5154 154.569 10.8238C154.075 11.1245 153.682 11.5524 153.389 12.1074C153.096 12.6548 152.95 13.2947 152.95 14.0271V24.8279H148.763Z" fill="#38383C"/>
<path d="M136.146 25.1403C134.75 25.1403 133.501 24.7818 132.399 24.0648C131.297 23.3479 130.425 22.3071 129.786 20.9425C129.146 19.578 128.826 17.9205 128.826 15.97C128.826 13.9964 129.15 12.3312 129.797 10.9743C130.452 9.60978 131.335 8.58058 132.445 7.88674C133.555 7.18518 134.793 6.83441 136.157 6.83441C137.198 6.83441 138.054 7.01172 138.725 7.36635C139.395 7.71328 139.927 8.13344 140.32 8.62684C140.714 9.11252 141.018 9.57123 141.234 10.003H141.407V1.1449H145.605V24.8281H141.488V22.0296H141.234C141.018 22.4613 140.706 22.92 140.297 23.4057C139.889 23.8837 139.349 24.2923 138.678 24.6315C138.008 24.9707 137.163 25.1403 136.146 25.1403ZM137.314 21.7058C138.2 21.7058 138.956 21.4668 139.58 20.9888C140.205 20.5031 140.679 19.8285 141.003 18.9651C141.326 18.1016 141.488 17.0956 141.488 15.9469C141.488 14.7982 141.326 13.7998 141.003 12.9518C140.687 12.1038 140.216 11.4446 139.592 10.9743C138.975 10.5041 138.216 10.2689 137.314 10.2689C136.381 10.2689 135.602 10.5118 134.978 10.9975C134.353 11.4832 133.883 12.1539 133.567 13.0096C133.251 13.8653 133.093 14.8444 133.093 15.9469C133.093 17.057 133.251 18.0477 133.567 18.9188C133.891 19.7823 134.365 20.4646 134.989 20.9657C135.622 21.4591 136.396 21.7058 137.314 21.7058Z" fill="#38383C"/>
<path d="M111.059 24.8281H106.48L114.818 1.1449H120.114L128.463 24.8281H123.884L117.558 6.0018H117.373L111.059 24.8281ZM111.21 15.5421H123.699V18.9882H111.21V15.5421Z" fill="#38383C"/>
<path d="M98.0889 25.1748C96.3157 25.1748 94.7931 24.7855 93.5211 24.0068C92.2567 23.2282 91.2815 22.1527 90.5953 20.7805C89.9169 19.4005 89.5777 17.8124 89.5777 16.0161C89.5777 14.2121 89.9246 12.6201 90.6185 11.2401C91.3123 9.85244 92.2914 8.77313 93.5557 8.0022C94.8278 7.22355 96.3311 6.83423 98.0657 6.83423C99.5074 6.83423 100.783 7.1002 101.893 7.63215C103.011 8.15638 103.902 8.90034 104.565 9.86401C105.228 10.82 105.605 11.9378 105.698 13.2176H101.697C101.535 12.3618 101.149 11.6487 100.54 11.0782C99.9391 10.5 99.1335 10.2109 98.1235 10.2109C97.2678 10.2109 96.5161 10.4422 95.8686 10.9048C95.221 11.3596 94.716 12.0149 94.3537 12.8707C93.999 13.7264 93.8217 14.7517 93.8217 15.9467C93.8217 17.1571 93.999 18.1978 94.3537 19.069C94.7083 19.9324 95.2055 20.5993 95.8454 21.0696C96.493 21.5321 97.2524 21.7634 98.1235 21.7634C98.7403 21.7634 99.2915 21.6478 99.7772 21.4165C100.271 21.1775 100.683 20.8344 101.015 20.3873C101.346 19.9401 101.573 19.3966 101.697 18.7568H105.698C105.598 20.0134 105.228 21.1274 104.588 22.0988C103.948 23.0624 103.077 23.818 101.974 24.3653C100.872 24.905 99.5768 25.1748 98.0889 25.1748Z" fill="#38383C"/>
<path d="M79.4637 24.8279V7.06557H83.5227V10.026H83.7077C84.0315 9.00062 84.5866 8.21041 85.3729 7.65533C86.167 7.09255 87.0728 6.81116 88.0905 6.81116C88.3217 6.81116 88.58 6.82272 88.8653 6.84585C89.1582 6.86127 89.4011 6.88825 89.5938 6.9268V10.7776C89.4165 10.7159 89.1351 10.662 88.7496 10.6157C88.3719 10.5618 88.0057 10.5348 87.651 10.5348C86.8878 10.5348 86.2017 10.7005 85.5926 11.032C84.9913 11.3558 84.5172 11.8068 84.1703 12.385C83.8233 12.9632 83.6499 13.6301 83.6499 14.3856V24.8279H79.4637Z" fill="#38383C"/>
<path d="M60.428 24.8281H55.8486L64.1863 1.1449H69.4826L77.8319 24.8281H73.2525L66.927 6.0018H66.742L60.428 24.8281ZM60.5783 15.5421H73.0675V18.9882H60.5783V15.5421Z" fill="#38383C"/>
</svg>
